<svg width="453" height="494" viewBox="0 0 453 494" fill="none" xmlns="http://www.w3.org/2000/svg">
<path d="M369.017 204.95C376.871 210.919 381.584 220.187 381.584 230.083V387.167C381.584 395.499 378.274 403.49 372.382 409.382C366.49 415.273 358.499 418.583 350.167 418.583H98.8337C90.5014 418.583 82.5105 415.273 76.6187 409.382C70.727 403.49 67.417 395.499 67.417 387.167V230.083C67.417 225.206 68.5526 220.396 70.7337 216.033C72.9149 211.671 76.0818 207.876 79.9837 204.95L205.65 110.7C211.088 106.621 217.703 104.417 224.5 104.417C231.298 104.417 237.912 106.621 243.35 110.7L369.017 204.95Z" stroke="#F8FAFC" stroke-width="31.4167" stroke-linecap="round" stroke-linejoin="round"/>
<path d="M381.584 230.083L240.68 319.621C235.83 322.659 230.223 324.271 224.5 324.271C218.778 324.271 213.17 322.659 208.321 319.621L67.417 230.083" stroke="#F8FAFC" stroke-width="31.4167" stroke-linecap="round" stroke-linejoin="round"/>
<g filter="url(#filter0_bd_193_150)">
<rect x="114" y="179.581" width="223.585" height="118.292" rx="59.1461" transform="rotate(-0.405257 114 179.581)" fill="#EF4444" fill-opacity="0.75" shape-rendering="crispEdges"/>
<path d="M178.255 236.244L178.291 241.21L164.566 241.307L164.531 236.341L178.255 236.244ZM204.226 254.003C202.149 254.017 200.295 253.648 198.664 252.896C197.042 252.143 195.751 251.099 194.791 249.764C193.832 248.428 193.326 246.894 193.275 245.16L199.446 245.117C199.523 246.282 200.02 247.224 200.936 247.942C201.852 248.661 202.937 249.015 204.191 249.007C205.19 249 206.07 248.773 206.831 248.327C207.602 247.871 208.2 247.244 208.626 246.448C209.061 245.641 209.275 244.719 209.267 243.68C209.26 242.622 209.028 241.693 208.572 240.893C208.125 240.093 207.508 239.47 206.721 239.025C205.935 238.58 205.037 238.356 204.027 238.354C203.146 238.36 202.29 238.547 201.46 238.916C200.639 239.284 200.001 239.783 199.545 240.413L193.881 239.439L195.194 223.559L213.591 223.429L213.628 228.631L200.477 228.724L199.751 236.268L199.927 236.267C200.451 235.518 201.245 234.895 202.309 234.398C203.374 233.901 204.567 233.647 205.89 233.638C207.702 233.625 209.321 234.04 210.748 234.882C212.174 235.724 213.304 236.887 214.138 238.37C214.971 239.844 215.39 241.545 215.394 243.475C215.418 245.503 214.96 247.309 214.021 248.893C213.092 250.467 211.783 251.711 210.095 252.624C208.416 253.527 206.46 253.987 204.226 254.003ZM222.653 253.843C221.683 253.85 220.848 253.513 220.148 252.832C219.457 252.141 219.108 251.311 219.101 250.341C219.095 249.381 219.432 248.556 220.113 247.865C220.803 247.175 221.633 246.826 222.603 246.819C223.544 246.812 224.369 247.149 225.079 247.83C225.789 248.511 226.148 249.331 226.155 250.291C226.159 250.938 225.997 251.532 225.668 252.073C225.348 252.604 224.925 253.033 224.398 253.36C223.872 253.678 223.29 253.838 222.653 253.843ZM241.414 253.74C239.22 253.755 237.263 253.392 235.543 252.65C233.833 251.898 232.479 250.859 231.48 249.534C230.491 248.198 229.975 246.654 229.934 244.901L236.34 244.856C236.385 245.59 236.629 246.235 237.074 246.79C237.529 247.336 238.129 247.757 238.876 248.056C239.623 248.354 240.461 248.5 241.392 248.494C242.362 248.487 243.218 248.309 243.96 247.961C244.702 247.613 245.281 247.134 245.698 246.523C246.115 245.913 246.321 245.211 246.315 244.418C246.31 243.614 246.079 242.906 245.624 242.292C245.179 241.668 244.539 241.183 243.704 240.836C242.878 240.489 241.897 240.32 240.761 240.328L237.954 240.347L237.921 235.675L240.728 235.655C241.688 235.648 242.534 235.475 243.267 235.137C244.009 234.799 244.584 234.334 244.991 233.744C245.398 233.143 245.599 232.446 245.593 231.653C245.588 230.898 245.402 230.238 245.036 229.673C244.679 229.097 244.176 228.65 243.527 228.331C242.888 228.013 242.142 227.856 241.29 227.862C240.428 227.868 239.641 228.031 238.928 228.349C238.215 228.658 237.645 229.098 237.218 229.669C236.791 230.24 236.565 230.908 236.541 231.673L230.443 231.716C230.46 229.981 230.944 228.45 231.895 227.12C232.845 225.791 234.131 224.749 235.752 223.992C237.383 223.227 239.227 222.836 241.284 222.822C243.361 222.807 245.181 223.171 246.744 223.915C248.306 224.658 249.524 225.668 250.395 226.946C251.276 228.213 251.717 229.64 251.718 231.227C251.74 232.912 251.226 234.322 250.176 235.456C249.135 236.59 247.774 237.314 246.091 237.63L246.093 237.865C248.309 238.134 249.999 238.891 251.164 240.136C252.339 241.372 252.928 242.926 252.931 244.797C252.953 246.511 252.469 248.038 251.479 249.377C250.499 250.717 249.14 251.775 247.402 252.551C245.663 253.328 243.668 253.724 241.414 253.74ZM273.997 247.455L273.986 245.868C273.977 244.663 274.224 243.554 274.726 242.541C275.238 241.519 275.982 240.701 276.957 240.086C277.942 239.462 279.145 239.145 280.566 239.135C282.006 239.125 283.218 239.42 284.202 240.02C285.195 240.621 285.946 241.428 286.453 242.444C286.969 243.449 287.232 244.559 287.24 245.774L287.251 247.361C287.26 248.566 287.013 249.68 286.511 250.702C286.009 251.715 285.265 252.528 284.28 253.143C283.295 253.767 282.092 254.084 280.672 254.094C279.231 254.104 278.019 253.804 277.035 253.194C276.052 252.593 275.301 251.79 274.785 250.785C274.268 249.77 274.006 248.66 273.997 247.455ZM278.262 245.838L278.273 247.425C278.278 248.12 278.449 248.775 278.787 249.39C279.134 250.005 279.753 250.309 280.645 250.303C281.536 250.296 282.141 249.988 282.46 249.379C282.789 248.769 282.951 248.107 282.946 247.391L282.935 245.804C282.93 245.089 282.768 244.424 282.45 243.809C282.133 243.194 281.513 242.89 280.592 242.897C279.711 242.903 279.101 243.216 278.762 243.835C278.424 244.455 278.257 245.122 278.262 245.838ZM258.431 230.342L258.42 228.755C258.411 227.54 258.663 226.427 259.175 225.414C259.687 224.391 260.431 223.573 261.406 222.959C262.391 222.344 263.584 222.032 264.985 222.022C266.435 222.012 267.652 222.307 268.636 222.908C269.62 223.508 270.37 224.316 270.887 225.331C271.403 226.336 271.666 227.447 271.675 228.661L271.686 230.248C271.694 231.463 271.443 232.577 270.931 233.589C270.428 234.602 269.685 235.416 268.699 236.03C267.724 236.634 266.521 236.942 265.091 236.952C263.661 236.962 262.449 236.667 261.455 236.067C260.471 235.456 259.721 234.653 259.204 233.658C258.697 232.652 258.44 231.547 258.431 230.342ZM262.726 228.725L262.737 230.312C262.742 231.027 262.913 231.687 263.25 232.292C263.598 232.897 264.202 233.196 265.064 233.19C265.966 233.184 266.576 232.876 266.895 232.266C267.223 231.656 267.385 230.994 267.38 230.279L267.369 228.692C267.364 227.977 267.203 227.312 266.885 226.697C266.567 226.082 265.943 225.777 265.012 225.784C264.14 225.79 263.54 226.108 263.211 226.737C262.882 227.367 262.721 228.029 262.726 228.725ZM260.533 253.193L281.01 222.952L284.86 222.925L264.383 253.166L260.533 253.193Z" fill="#F87171"/>
<rect x="116.977" y="182.516" width="217.673" height="112.381" rx="56.1904" transform="rotate(-0.405257 116.977 182.516)" stroke="#EF4444" stroke-width="5.91153" shape-rendering="crispEdges"/>
</g>
<g filter="url(#filter1_bd_193_150)">
<rect x="155" y="126.623" width="238.781" height="114.891" rx="57.4454" transform="rotate(-13.224 155 126.623)" fill="#16A34A" fill-opacity="0.75" shape-rendering="crispEdges"/>
<path d="M225.914 179.294L221.295 159.639L226.264 158.471L230.883 178.127L225.914 179.294ZM216.845 173.677L215.677 168.707L235.333 164.088L236.501 169.058L216.845 173.677ZM259.74 145.917L266.42 174.346L260.41 175.758L255.07 153.035L254.903 153.074L249.352 158.685L248.099 153.354L254.09 147.245L259.74 145.917ZM278.865 141.423L285.545 169.852L279.535 171.264L274.195 148.541L274.028 148.58L268.477 154.191L267.224 148.86L273.215 142.75L278.865 141.423ZM294.372 168.158C293.456 168.374 292.593 168.235 291.784 167.741C290.981 167.236 290.473 166.526 290.257 165.61C290.044 164.703 290.186 163.849 290.681 163.049C291.186 162.247 291.896 161.738 292.813 161.523C293.701 161.314 294.554 161.456 295.373 161.947C296.191 162.438 296.707 163.137 296.92 164.044C297.064 164.655 297.038 165.252 296.843 165.835C296.655 166.406 296.347 166.903 295.919 167.326C295.489 167.74 294.973 168.017 294.372 168.158ZM312.663 163.889C310.701 164.35 308.868 164.4 307.162 164.04C305.465 163.677 304.019 162.967 302.824 161.91C301.628 160.853 300.819 159.51 300.397 157.881L306.227 156.51C306.551 157.597 307.224 158.381 308.245 158.863C309.267 159.346 310.37 159.448 311.554 159.17C312.498 158.948 313.282 158.544 313.906 157.958C314.537 157.36 314.968 156.639 315.199 155.794C315.437 154.937 315.441 154.018 315.211 153.037C314.976 152.038 314.556 151.209 313.952 150.55C313.358 149.889 312.64 149.433 311.8 149.181C310.959 148.929 310.061 148.911 309.106 149.125C308.273 149.321 307.504 149.683 306.798 150.21C306.101 150.735 305.604 151.345 305.309 152.039L299.739 152.337L297.563 137.029L314.942 132.945L316.097 137.859L303.673 140.778L304.611 148.072L304.777 148.033C305.112 147.213 305.729 146.452 306.629 145.753C307.529 145.053 308.604 144.556 309.853 144.263C311.565 143.86 313.186 143.904 314.718 144.394C316.249 144.884 317.568 145.74 318.676 146.964C319.782 148.179 320.544 149.699 320.963 151.524C321.423 153.438 321.379 155.245 320.831 156.946C320.291 158.635 319.32 160.094 317.919 161.321C316.525 162.538 314.773 163.393 312.663 163.889ZM341.692 151.033L341.339 149.534C341.072 148.396 341.067 147.293 341.324 146.227C341.588 145.149 342.116 144.215 342.906 143.424C343.704 142.621 344.774 142.062 346.116 141.747C347.476 141.427 348.686 141.445 349.746 141.802C350.816 142.156 351.7 142.759 352.398 143.61C353.103 144.45 353.591 145.444 353.86 146.592L354.212 148.091C354.48 149.229 354.486 150.336 354.231 151.411C353.974 152.478 353.445 153.408 352.646 154.201C351.848 155.004 350.778 155.563 349.436 155.878C348.076 156.198 346.864 156.175 345.802 155.809C344.742 155.453 343.859 154.855 343.154 154.014C342.447 153.165 341.959 152.171 341.692 151.033ZM345.379 148.585L345.731 150.084C345.885 150.741 346.188 151.324 346.64 151.833C347.101 152.34 347.753 152.494 348.595 152.297C349.437 152.099 349.943 151.677 350.114 151.031C350.294 150.384 350.304 149.722 350.145 149.047L349.793 147.547C349.634 146.872 349.338 146.277 348.905 145.764C348.472 145.25 347.821 145.096 346.951 145.3C346.118 145.496 345.608 145.924 345.421 146.583C345.234 147.242 345.22 147.909 345.379 148.585ZM323.279 138.193L322.927 136.693C322.657 135.546 322.656 134.438 322.922 133.369C323.187 132.292 323.714 131.357 324.505 130.566C325.305 129.773 326.366 129.221 327.689 128.91C329.059 128.588 330.274 128.605 331.334 128.961C332.395 129.318 333.278 129.92 333.986 130.77C334.691 131.61 335.178 132.604 335.448 133.751L335.8 135.25C336.07 136.398 336.072 137.506 335.805 138.574C335.548 139.64 335.019 140.57 334.219 141.364C333.427 142.146 332.355 142.695 331.004 143.013C329.653 143.33 328.442 143.312 327.373 142.958C326.31 142.592 325.428 141.994 324.725 141.163C324.029 140.321 323.547 139.331 323.279 138.193ZM326.994 135.738L327.347 137.237C327.505 137.912 327.809 138.5 328.259 139C328.718 139.498 329.354 139.651 330.169 139.459C331.02 139.259 331.531 138.836 331.701 138.191C331.881 137.543 331.892 136.882 331.733 136.206L331.381 134.707C331.222 134.031 330.926 133.437 330.493 132.923C330.06 132.41 329.404 132.257 328.525 132.463C327.701 132.657 327.201 133.087 327.026 133.753C326.85 134.419 326.84 135.081 326.994 135.738ZM330.187 159.361L343.052 126.34L346.689 125.485L333.824 158.507L330.187 159.361Z" fill="#4ADE80"/>
<rect x="158.448" y="128.759" width="233.045" height="109.154" rx="54.5772" transform="rotate(-13.224 158.448 128.759)" stroke="#22C55E" stroke-width="5.73634" shape-rendering="crispEdges"/>
</g>
<mask id="mask0_193_150" style="mask-type:alpha" maskUnits="userSpaceOnUse" x="36" y="73" width="377" height="377">
<path d="M369.017 204.95C376.871 210.919 381.584 220.187 381.584 230.083V387.167C381.584 395.499 378.274 403.49 372.382 409.382C366.49 415.273 358.499 418.583 350.167 418.583H98.8337C90.5014 418.583 82.5105 415.273 76.6187 409.382C70.727 403.49 67.417 395.499 67.417 387.167V230.083C67.417 225.206 68.5526 220.396 70.7337 216.033C72.9149 211.671 76.0818 207.876 79.9837 204.95L205.65 110.7C211.088 106.621 217.703 104.417 224.5 104.417C231.298 104.417 237.912 106.621 243.35 110.7L369.017 204.95Z" stroke="#F8FAFC" stroke-width="31.4167" stroke-linecap="round" stroke-linejoin="round"/>
<path d="M381.584 230.083L240.68 319.621C235.83 322.659 230.223 324.271 224.5 324.271C218.778 324.271 213.17 322.659 208.321 319.621L67.417 230.083" stroke="#F8FAFC" stroke-width="31.4167" stroke-linecap="round" stroke-linejoin="round"/>
</mask>
<g mask="url(#mask0_193_150)">
<path d="M217.006 306.253L84 222L47.5 196L-13 298L62 467H434L453 262.5L372 217.5L231.993 306.25C227.418 309.15 221.581 309.151 217.006 306.253Z" fill="#F8FAFC"/>
</g>
<defs>
<filter id="filter0_bd_193_150" x="78.5845" y="142.585" width="295.247" height="190.702" filterUnits="userSpaceOnUse" color-interpolation-filters="sRGB">
<feFlood flood-opacity="0" result="BackgroundImageFix"/>
<feGaussianBlur in="BackgroundImageFix" stdDeviation="17.5"/>
<feComposite in2="SourceAlpha" operator="in" result="effect1_backgroundBlur_193_150"/>
<feColorMatrix in="SourceAlpha" type="matrix" values="0 0 0 0 0 0 0 0 0 0 0 0 0 0 0 0 0 0 127 0" result="hardAlpha"/>
<feOffset/>
<feGaussianBlur stdDeviation="17.7077"/>
<feComposite in2="hardAlpha" operator="out"/>
<feColorMatrix type="matrix" values="0 0 0 0 0.937255 0 0 0 0 0.266667 0 0 0 0 0.266667 0 0 0 1 0"/>
<feBlend mode="normal" in2="effect1_backgroundBlur_193_150" result="effect2_dropShadow_193_150"/>
<feBlend mode="normal" in="SourceGraphic" in2="effect2_dropShadow_193_150" result="shape"/>
</filter>
<filter id="filter1_bd_193_150" x="120" y="37" width="328.732" height="236.468" filterUnits="userSpaceOnUse" color-interpolation-filters="sRGB">
<feFlood flood-opacity="0" result="BackgroundImageFix"/>
<feGaussianBlur in="BackgroundImageFix" stdDeviation="17.5"/>
<feComposite in2="SourceAlpha" operator="in" result="effect1_backgroundBlur_193_150"/>
<feColorMatrix in="SourceAlpha" type="matrix" values="0 0 0 0 0 0 0 0 0 0 0 0 0 0 0 0 0 0 127 0" result="hardAlpha"/>
<feOffset/>
<feGaussianBlur stdDeviation="17.1829"/>
<feComposite in2="hardAlpha" operator="out"/>
<feColorMatrix type="matrix" values="0 0 0 0 0.192157 0 0 0 0 0.87451 0 0 0 0 0.419608 0 0 0 0.5 0"/>
<feBlend mode="normal" in2="effect1_backgroundBlur_193_150" result="effect2_dropShadow_193_150"/>
<feBlend mode="normal" in="SourceGraphic" in2="effect2_dropShadow_193_150" result="shape"/>
</filter>
</defs>
</svg>
