<svg width="794" height="657" viewBox="0 0 794 657" fill="none" xmlns="http://www.w3.org/2000/svg">
<g filter="url(#filter0_d_147_1333)">
<rect x="259.902" y="303.07" width="440.353" height="233.176" rx="116.588" transform="rotate(6.36102 259.902 303.07)" fill="#EF4444" fill-opacity="0.35" shape-rendering="crispEdges"/>
<path d="M372.519 428.367L371.435 438.093L344.56 435.097L345.645 425.371L372.519 428.367ZM419.209 469.142C415.142 468.688 411.6 467.536 408.583 465.685C405.584 463.836 403.301 461.493 401.734 458.658C400.166 455.822 399.533 452.703 399.835 449.299L411.92 450.646C411.799 452.944 412.552 454.902 414.178 456.52C415.804 458.139 417.844 459.085 420.3 459.358C422.256 459.577 424.031 459.337 425.623 458.641C427.237 457.928 428.553 456.841 429.57 455.381C430.608 453.905 431.241 452.149 431.468 450.116C431.699 448.044 431.461 446.173 430.754 444.502C430.066 442.832 429.004 441.471 427.567 440.417C426.131 439.364 424.426 438.718 422.453 438.478C420.726 438.286 419.008 438.453 417.298 438.981C415.608 439.512 414.243 440.34 413.205 441.467L402.348 438.247L408.604 407.482L444.629 411.498L443.493 421.684L417.741 418.813L414.57 433.404L414.915 433.443C416.114 432.101 417.812 431.066 420.01 430.34C422.207 429.614 424.601 429.396 427.191 429.684C430.74 430.08 433.812 431.267 436.407 433.246C439.003 435.225 440.943 437.762 442.23 440.858C443.518 443.934 443.942 447.36 443.502 451.137C443.078 455.11 441.764 458.537 439.559 461.418C437.375 464.282 434.526 466.411 431.01 467.806C427.516 469.184 423.583 469.629 419.209 469.142ZM455.298 473.106C453.399 472.895 451.843 472.042 450.631 470.547C449.44 469.035 448.95 467.33 449.162 465.431C449.372 463.551 450.223 462.014 451.715 460.821C453.227 459.63 454.932 459.141 456.831 459.353C458.673 459.558 460.209 460.409 461.441 461.906C462.672 463.402 463.183 465.091 462.973 466.971C462.832 468.237 462.377 469.361 461.607 470.343C460.859 471.308 459.931 472.05 458.825 472.567C457.72 473.066 456.545 473.245 455.298 473.106ZM492.029 477.259C487.732 476.78 483.987 475.615 480.795 473.764C477.624 471.896 475.215 469.549 473.568 466.724C471.943 463.882 471.293 460.741 471.618 457.301L484.164 458.7C484.08 460.147 484.409 461.466 485.15 462.655C485.913 463.828 486.99 464.793 488.382 465.55C489.773 466.307 491.38 466.787 493.202 466.99C495.102 467.202 496.817 467.053 498.35 466.545C499.883 466.036 501.128 465.233 502.085 464.135C503.043 463.038 503.608 461.712 503.781 460.159C503.957 458.586 503.671 457.146 502.923 455.839C502.197 454.515 501.057 453.417 499.503 452.544C497.969 451.674 496.089 451.115 493.864 450.867L488.368 450.254L489.388 441.104L494.884 441.717C496.764 441.926 498.459 441.785 499.971 441.293C501.501 440.804 502.734 440.028 503.668 438.967C504.604 437.887 505.158 436.57 505.332 435.016C505.496 433.539 505.286 432.205 504.7 431.013C504.136 429.804 503.256 428.813 502.06 428.039C500.884 427.266 499.461 426.787 497.792 426.601C496.104 426.413 494.526 426.548 493.057 427.006C491.591 427.444 490.373 428.173 489.405 429.191C488.437 430.21 487.841 431.464 487.617 432.954L475.675 431.623C476.111 428.234 477.414 425.349 479.582 422.969C481.751 420.589 484.509 418.848 487.855 417.745C491.224 416.625 494.922 416.289 498.95 416.738C503.017 417.192 506.493 418.327 509.378 420.144C512.264 421.961 514.41 424.22 515.818 426.921C517.248 429.605 517.779 432.5 517.414 435.606C517.065 438.907 515.732 441.545 513.414 443.52C511.116 445.498 508.284 446.6 504.918 446.826L504.867 447.287C509.14 448.326 512.272 450.2 514.261 452.908C516.273 455.598 517.064 458.775 516.637 462.436C516.282 465.796 514.98 468.67 512.733 471.061C510.505 473.454 507.6 475.208 504.019 476.324C500.437 477.439 496.441 477.751 492.029 477.259ZM557.235 472.526L557.582 469.419C557.845 467.059 558.585 464.947 559.803 463.083C561.042 461.201 562.687 459.773 564.738 458.797C566.81 457.805 569.237 457.463 572.018 457.773C574.838 458.088 577.141 458.947 578.927 460.35C580.732 461.755 582.012 463.51 582.768 465.614C583.545 467.701 583.801 469.934 583.536 472.312L583.19 475.42C582.926 477.779 582.185 479.901 580.965 481.785C579.747 483.649 578.103 485.068 576.033 486.042C573.961 487.034 571.534 487.375 568.753 487.065C565.933 486.751 563.631 485.883 561.848 484.46C560.062 483.057 558.781 481.312 558.004 479.225C557.228 477.119 556.972 474.886 557.235 472.526ZM565.955 470.352L565.609 473.46C565.457 474.822 565.64 476.143 566.157 477.425C566.694 478.708 567.835 479.447 569.581 479.642C571.326 479.836 572.582 479.374 573.347 478.255C574.132 477.139 574.603 475.88 574.759 474.48L575.105 471.372C575.261 469.972 575.1 468.633 574.621 467.356C574.142 466.08 573 465.341 571.197 465.14C569.471 464.947 568.205 465.418 567.398 466.551C566.592 467.685 566.111 468.952 565.955 470.352ZM530.753 435.432L531.1 432.325C531.365 429.946 532.116 427.825 533.353 425.963C534.592 424.081 536.237 422.653 538.288 421.677C540.358 420.704 542.765 420.37 545.508 420.676C548.347 420.992 550.659 421.852 552.445 423.255C554.23 424.659 555.511 426.413 556.286 428.519C557.063 430.606 557.319 432.839 557.054 435.218L556.708 438.325C556.442 440.704 555.691 442.825 554.454 444.687C553.237 446.552 551.593 447.971 549.523 448.944C547.474 449.9 545.049 450.222 542.249 449.91C539.448 449.598 537.145 448.739 535.34 447.334C533.557 445.912 532.275 444.166 531.496 442.099C530.738 440.014 530.49 437.792 530.753 435.432ZM539.531 433.264L539.184 436.372C539.028 437.772 539.21 439.104 539.729 440.366C540.268 441.63 541.382 442.356 543.07 442.544C544.835 442.741 546.1 442.28 546.865 441.161C547.65 440.044 548.121 438.786 548.277 437.386L548.623 434.278C548.779 432.878 548.618 431.539 548.139 430.262C547.66 428.985 546.509 428.245 544.686 428.042C542.979 427.852 541.731 428.334 540.942 429.489C540.153 430.644 539.682 431.902 539.531 433.264ZM529.56 480.628L576.643 426.215L584.182 427.056L537.099 481.468L529.56 480.628Z" fill="#F87171"/>
<rect x="265.045" y="309.503" width="428.706" height="221.529" rx="110.765" transform="rotate(6.36102 265.045 309.503)" stroke="#EF4444" stroke-width="11.647" shape-rendering="crispEdges"/>
</g>
<g filter="url(#filter1_d_147_1333)">
<rect x="154.601" y="75" width="469.83" height="226.415" rx="113.207" transform="rotate(15 154.601 75)" fill="#16A34A" fill-opacity="0.35" shape-rendering="crispEdges"/>
<path d="M228.51 232.953L238.806 194.528L248.521 197.131L238.225 235.556L228.51 232.953ZM218.001 214.751L220.604 205.036L259.03 215.333L256.427 225.048L218.001 214.751ZM318.331 206.529L303.439 262.105L291.689 258.957L303.592 214.534L303.266 214.446L288.401 219.014L291.193 208.594L307.286 203.569L318.331 206.529ZM355.718 216.547L340.827 272.123L329.076 268.975L340.98 224.552L340.654 224.464L325.789 229.032L328.581 218.612L344.674 213.587L355.718 216.547ZM357.727 277.408C355.936 276.928 354.568 275.883 353.623 274.272C352.701 272.648 352.479 270.941 352.959 269.15C353.434 267.377 354.475 266.027 356.081 265.1C357.704 264.178 359.412 263.956 361.203 264.436C362.94 264.902 364.29 265.942 365.253 267.557C366.216 269.173 366.46 270.867 365.985 272.64C365.665 273.834 365.064 274.846 364.183 275.676C363.324 276.493 362.326 277.069 361.189 277.405C360.057 277.722 358.903 277.723 357.727 277.408ZM393.459 287.04C389.623 286.012 386.393 284.391 383.768 282.175C381.161 279.964 379.312 277.384 378.222 274.435C377.131 271.487 376.978 268.402 377.764 265.18L389.161 268.234C388.711 270.421 389.148 272.409 390.472 274.198C391.795 275.988 393.615 277.193 395.931 277.814C397.776 278.308 399.513 278.337 401.143 277.901C402.795 277.452 404.215 276.601 405.404 275.349C406.616 274.084 407.478 272.492 407.992 270.575C408.516 268.621 408.56 266.791 408.125 265.084C407.709 263.383 406.888 261.922 405.664 260.702C404.44 259.482 402.898 258.613 401.04 258.096C399.412 257.659 397.739 257.57 396.022 257.827C394.323 258.089 392.893 258.686 391.732 259.616L381.786 254.944L392.272 226.341L426.247 235.445L423.673 245.051L399.386 238.544L394.217 252.079L394.543 252.167C395.888 251.053 397.668 250.309 399.882 249.933C402.097 249.556 404.425 249.696 406.867 250.35C410.214 251.247 412.988 252.834 415.19 255.11C417.391 257.387 418.883 260.104 419.666 263.261C420.454 266.4 420.361 269.749 419.388 273.308C418.403 277.058 416.643 280.154 414.107 282.597C411.595 285.026 408.551 286.653 404.975 287.479C401.422 288.292 397.583 288.145 393.459 287.04ZM455.83 291.769L456.615 288.839C457.211 286.613 458.229 284.695 459.67 283.084C461.133 281.459 462.919 280.328 465.029 279.691C467.161 279.041 469.539 279.068 472.162 279.771C474.822 280.483 476.906 281.643 478.414 283.249C479.941 284.86 480.914 286.73 481.332 288.859C481.773 290.975 481.694 293.154 481.093 295.397L480.307 298.328C479.711 300.553 478.69 302.481 477.246 304.11C475.806 305.721 474.022 306.843 471.894 307.475C469.761 308.125 467.383 308.099 464.76 307.396C462.101 306.683 460.019 305.515 458.515 303.89C457.007 302.284 456.032 300.423 455.59 298.307C455.154 296.174 455.234 293.995 455.83 291.769ZM464.512 290.954L463.727 293.885C463.382 295.17 463.365 296.464 463.675 297.769C464.003 299.078 464.99 299.953 466.636 300.395C468.282 300.836 469.554 300.575 470.452 299.614C471.368 298.657 472.002 297.518 472.356 296.198L473.141 293.267C473.495 291.946 473.535 290.638 473.262 289.343C472.988 288.049 472.001 287.173 470.301 286.718C468.673 286.281 467.389 286.548 466.451 287.518C465.512 288.488 464.866 289.634 464.512 290.954ZM435.831 252.323L436.616 249.392C437.217 247.149 438.247 245.224 439.705 243.617C441.168 241.993 442.954 240.862 445.064 240.225C447.192 239.593 449.549 239.624 452.136 240.317C454.814 241.034 456.907 242.196 458.415 243.803C459.924 245.409 460.897 247.279 461.333 249.413C461.775 251.528 461.695 253.707 461.094 255.951L460.308 258.881C459.707 261.125 458.678 263.05 457.22 264.656C455.78 266.268 453.996 267.389 451.868 268.021C449.763 268.64 447.39 268.596 444.749 267.888C442.107 267.18 440.023 266.021 438.497 264.409C436.993 262.785 436.018 260.924 435.572 258.827C435.148 256.716 435.235 254.548 435.831 252.323ZM444.567 251.522L443.782 254.453C443.428 255.774 443.409 257.077 443.723 258.364C444.056 259.655 445.018 260.514 446.61 260.941C448.274 261.387 449.555 261.129 450.453 260.167C451.369 259.21 452.003 258.072 452.357 256.751L453.143 253.82C453.496 252.5 453.537 251.192 453.263 249.897C452.99 248.602 451.993 247.724 450.275 247.264C448.665 246.832 447.397 247.113 446.472 248.106C445.546 249.099 444.912 250.238 444.567 251.522ZM428.099 295.508L481.199 250.169L488.309 252.074L435.209 297.413L428.099 295.508Z" fill="#4ADE80"/>
<rect x="158.596" y="81.921" width="458.528" height="215.113" rx="107.557" transform="rotate(15 158.596 81.921)" stroke="#22C55E" stroke-width="11.3019" shape-rendering="crispEdges"/>
</g>
<defs>
<filter id="filter0_d_147_1333" x="164.292" y="233.294" width="603.028" height="420.081" filterUnits="userSpaceOnUse" color-interpolation-filters="sRGB">
<feFlood flood-opacity="0" result="BackgroundImageFix"/>
<feColorMatrix in="SourceAlpha" type="matrix" values="0 0 0 0 0 0 0 0 0 0 0 0 0 0 0 0 0 0 127 0" result="hardAlpha"/>
<feOffset/>
<feGaussianBlur stdDeviation="34.8882"/>
<feComposite in2="hardAlpha" operator="out"/>
<feColorMatrix type="matrix" values="0 0 0 0 0.937255 0 0 0 0 0.266667 0 0 0 0 0.266667 0 0 0 1 0"/>
<feBlend mode="normal" in2="BackgroundImageFix" result="effect1_dropShadow_147_1333"/>
<feBlend mode="normal" in="SourceGraphic" in2="effect1_dropShadow_147_1333" result="shape"/>
</filter>
<filter id="filter1_d_147_1333" x="28.2916" y="7.29156" width="647.839" height="475.718" filterUnits="userSpaceOnUse" color-interpolation-filters="sRGB">
<feFlood flood-opacity="0" result="BackgroundImageFix"/>
<feColorMatrix in="SourceAlpha" type="matrix" values="0 0 0 0 0 0 0 0 0 0 0 0 0 0 0 0 0 0 127 0" result="hardAlpha"/>
<feOffset/>
<feGaussianBlur stdDeviation="33.8542"/>
<feComposite in2="hardAlpha" operator="out"/>
<feColorMatrix type="matrix" values="0 0 0 0 0.192157 0 0 0 0 0.87451 0 0 0 0 0.419608 0 0 0 0.5 0"/>
<feBlend mode="normal" in2="BackgroundImageFix" result="effect1_dropShadow_147_1333"/>
<feBlend mode="normal" in="SourceGraphic" in2="effect1_dropShadow_147_1333" result="shape"/>
</filter>
</defs>
</svg>
