<svg width="703" height="609" viewBox="0 0 703 609" fill="none" xmlns="http://www.w3.org/2000/svg">
<g filter="url(#filter0_d_147_1333)">
<rect x="207.138" y="270.535" width="440.353" height="233.176" rx="116.588" transform="rotate(6.36102 207.138 270.535)" fill="#EF4444" fill-opacity="0.35" shape-rendering="crispEdges"/>
<path d="M319.755 395.832L318.671 405.557L291.796 402.561L292.88 392.836L319.755 395.832ZM366.444 436.606C362.378 436.153 358.836 435.001 355.818 433.149C352.82 431.3 350.537 428.958 348.969 426.122C347.401 423.287 346.768 420.167 347.07 416.763L359.155 418.111C359.035 420.408 359.788 422.366 361.413 423.985C363.039 425.603 365.08 426.549 367.535 426.823C369.492 427.041 371.266 426.802 372.859 426.106C374.472 425.392 375.788 424.306 376.805 422.846C377.844 421.369 378.476 419.614 378.703 417.581C378.934 415.509 378.696 413.637 377.989 411.966C377.301 410.297 376.239 408.936 374.803 407.882C373.367 406.829 371.662 406.182 369.688 405.943C367.961 405.75 366.243 405.918 364.534 406.446C362.843 406.976 361.479 407.805 360.44 408.932L349.584 405.712L355.839 374.947L391.864 378.963L390.729 389.149L364.976 386.278L361.805 400.869L362.151 400.908C363.349 399.565 365.047 398.531 367.245 397.805C369.443 397.079 371.837 396.86 374.426 397.149C377.975 397.544 381.047 398.732 383.643 400.711C386.238 402.69 388.179 405.227 389.465 408.322C390.754 411.398 391.178 414.825 390.737 418.602C390.314 422.575 388.999 426.002 386.794 428.883C384.611 431.747 381.761 433.876 378.246 435.271C374.752 436.649 370.818 437.094 366.444 436.606ZM402.533 440.571C400.634 440.359 399.078 439.506 397.866 438.012C396.675 436.5 396.186 434.795 396.397 432.895C396.607 431.016 397.458 429.479 398.95 428.286C400.462 427.095 402.167 426.605 404.067 426.817C405.908 427.022 407.445 427.873 408.676 429.37C409.907 430.867 410.418 432.555 410.209 434.435C410.068 435.701 409.612 436.825 408.842 437.808C408.094 438.773 407.166 439.514 406.06 440.032C404.956 440.53 403.78 440.71 402.533 440.571ZM439.264 444.724C434.967 444.245 431.222 443.08 428.03 441.229C424.859 439.36 422.45 437.014 420.804 434.189C419.178 431.347 418.528 428.206 418.854 424.766L431.399 426.164C431.315 427.612 431.644 428.93 432.386 430.12C433.148 431.292 434.225 432.257 435.617 433.014C437.009 433.772 438.615 434.252 440.438 434.455C442.337 434.667 444.053 434.518 445.586 434.009C447.118 433.5 448.363 432.697 449.321 431.6C450.278 430.502 450.844 429.177 451.017 427.623C451.192 426.05 450.906 424.61 450.158 423.303C449.432 421.979 448.292 420.881 446.738 420.009C445.204 419.139 443.324 418.58 441.099 418.332L435.603 417.719L436.623 408.569L442.119 409.181C443.999 409.391 445.695 409.25 447.206 408.758C448.737 408.268 449.969 407.493 450.903 406.432C451.839 405.352 452.394 404.034 452.567 402.481C452.732 401.004 452.521 399.669 451.935 398.477C451.371 397.269 450.491 396.277 449.296 395.503C448.119 394.731 446.697 394.252 445.028 394.066C443.34 393.878 441.761 394.013 440.293 394.47C438.826 394.909 437.609 395.637 436.64 396.656C435.672 397.674 435.076 398.929 434.852 400.418L422.911 399.087C423.347 395.698 424.649 392.814 426.818 390.434C428.986 388.054 431.744 386.312 435.091 385.209C438.459 384.089 442.157 383.754 446.186 384.203C450.252 384.656 453.728 385.792 456.614 387.609C459.499 389.426 461.646 391.685 463.054 394.386C464.483 397.07 465.015 399.965 464.649 403.07C464.3 406.372 462.967 409.01 460.65 410.985C458.351 412.962 455.519 414.064 452.153 414.291L452.102 414.751C456.375 415.791 459.507 417.665 461.497 420.372C463.508 423.063 464.3 426.239 463.872 429.901C463.517 433.26 462.216 436.135 459.968 438.526C457.74 440.919 454.835 442.673 451.254 443.788C447.673 444.904 443.676 445.216 439.264 444.724ZM504.471 439.991L504.817 436.883C505.08 434.524 505.821 432.412 507.038 430.547C508.277 428.666 509.922 427.237 511.973 426.262C514.045 425.269 516.472 424.928 519.254 425.238C522.074 425.552 524.376 426.411 526.162 427.814C527.967 429.22 529.247 430.974 530.003 433.078C530.78 435.165 531.036 437.398 530.771 439.777L530.425 442.884C530.162 445.244 529.42 447.365 528.2 449.249C526.983 451.114 525.339 452.533 523.269 453.506C521.197 454.499 518.77 454.84 515.988 454.53C513.168 454.216 510.867 453.347 509.083 451.925C507.298 450.522 506.016 448.777 505.239 446.69C504.464 444.583 504.208 442.351 504.471 439.991ZM513.19 437.817L512.844 440.925C512.692 442.286 512.875 443.608 513.392 444.889C513.929 446.173 515.07 446.912 516.816 447.106C518.562 447.301 519.817 446.839 520.583 445.72C521.368 444.603 521.838 443.345 521.994 441.945L522.341 438.837C522.497 437.437 522.335 436.098 521.856 434.821C521.377 433.544 520.236 432.805 518.433 432.604C516.706 432.412 515.44 432.882 514.634 434.016C513.828 435.15 513.347 436.417 513.19 437.817ZM477.989 402.897L478.335 399.789C478.6 397.411 479.351 395.29 480.588 393.427C481.827 391.546 483.472 390.117 485.523 389.142C487.593 388.168 490 387.835 492.743 388.14C495.582 388.457 497.894 389.317 499.68 390.72C501.466 392.123 502.746 393.878 503.521 395.984C504.298 398.071 504.554 400.304 504.289 402.683L503.943 405.79C503.678 408.169 502.927 410.289 501.69 412.152C500.472 414.016 498.828 415.435 496.758 416.409C494.709 417.365 492.285 417.687 489.484 417.375C486.683 417.063 484.381 416.204 482.576 414.799C480.792 413.376 479.511 411.631 478.731 409.563C477.973 407.478 477.726 405.256 477.989 402.897ZM486.766 400.729L486.42 403.837C486.263 405.237 486.445 406.568 486.965 407.83C487.504 409.094 488.617 409.82 490.305 410.009C492.07 410.205 493.335 409.744 494.101 408.626C494.886 407.509 495.356 406.251 495.512 404.85L495.859 401.743C496.015 400.342 495.853 399.004 495.374 397.727C494.895 396.45 493.744 395.71 491.922 395.507C490.215 395.316 488.966 395.799 488.177 396.954C487.388 398.109 486.918 399.367 486.766 400.729ZM476.796 448.092L523.879 393.68L531.418 394.52L484.335 448.933L476.796 448.092Z" fill="#F87171"/>
<rect x="212.28" y="276.968" width="428.706" height="221.529" rx="110.765" transform="rotate(6.36102 212.28 276.968)" stroke="#EF4444" stroke-width="11.647" shape-rendering="crispEdges"/>
</g>
<g filter="url(#filter1_d_147_1333)">
<rect x="101.836" y="42.4646" width="469.83" height="226.415" rx="113.207" transform="rotate(15 101.836 42.4646)" fill="#16A34A" fill-opacity="0.35" shape-rendering="crispEdges"/>
<path d="M175.745 200.418L186.042 161.992L195.757 164.595L185.46 203.021L175.745 200.418ZM165.237 182.216L167.84 172.501L206.265 182.797L203.662 192.512L165.237 182.216ZM265.566 173.993L250.674 229.57L238.924 226.421L250.827 181.998L250.502 181.911L235.637 186.479L238.429 176.058L254.521 171.034L265.566 173.993ZM302.954 184.011L288.062 239.588L276.312 236.439L288.215 192.016L287.889 191.929L273.024 196.497L275.817 186.076L291.909 181.052L302.954 184.011ZM304.962 244.872C303.171 244.392 301.803 243.347 300.858 241.737C299.936 240.113 299.715 238.405 300.195 236.614C300.67 234.841 301.71 233.491 303.316 232.564C304.94 231.642 306.647 231.421 308.438 231.901C310.175 232.366 311.525 233.407 312.488 235.022C313.451 236.637 313.695 238.332 313.22 240.105C312.9 241.299 312.3 242.311 311.418 243.141C310.559 243.958 309.561 244.534 308.424 244.869C307.292 245.186 306.138 245.187 304.962 244.872ZM340.694 254.505C336.859 253.477 333.628 251.855 331.003 249.639C328.396 247.429 326.548 244.849 325.457 241.9C324.366 238.951 324.214 235.866 324.999 232.645L336.397 235.699C335.946 237.885 336.383 239.874 337.707 241.663C339.031 243.453 340.851 244.658 343.166 245.278C345.011 245.773 346.749 245.802 348.378 245.366C350.03 244.917 351.451 244.066 352.639 242.814C353.851 241.548 354.714 239.957 355.227 238.039C355.751 236.085 355.795 234.255 355.361 232.549C354.944 230.847 354.124 229.386 352.899 228.166C351.675 226.946 350.134 226.078 348.275 225.56C346.647 225.124 344.974 225.035 343.257 225.292C341.558 225.554 340.128 226.15 338.968 227.08L329.022 222.408L339.507 193.806L373.482 202.909L370.908 212.516L346.621 206.008L341.452 219.544L341.778 219.631C343.123 218.518 344.903 217.773 347.118 217.397C349.332 217.021 351.66 217.16 354.103 217.815C357.449 218.711 360.224 220.298 362.425 222.575C364.627 224.852 366.119 227.569 366.902 230.726C367.689 233.865 367.597 237.214 366.624 240.773C365.638 244.523 363.878 247.619 361.343 250.061C358.83 252.49 355.786 254.118 352.21 254.944C348.658 255.756 344.819 255.61 340.694 254.505ZM403.065 259.234L403.85 256.303C404.447 254.078 405.465 252.16 406.905 250.548C408.368 248.924 410.154 247.793 412.264 247.156C414.396 246.506 416.774 246.532 419.398 247.235C422.057 247.948 424.141 249.107 425.65 250.714C427.176 252.325 428.149 254.195 428.567 256.324C429.009 258.439 428.929 260.619 428.328 262.862L427.543 265.793C426.946 268.018 425.926 269.945 424.481 271.575C423.041 273.186 421.257 274.308 419.129 274.94C416.997 275.59 414.619 275.563 411.995 274.861C409.336 274.148 407.254 272.979 405.751 271.355C404.242 269.748 403.267 267.888 402.826 265.772C402.389 263.639 402.469 261.459 403.065 259.234ZM411.747 258.419L410.962 261.35C410.618 262.634 410.601 263.929 410.91 265.233C411.238 266.543 412.225 267.418 413.871 267.859C415.518 268.3 416.79 268.04 417.687 267.078C418.603 266.122 419.238 264.983 419.592 263.662L420.377 260.731C420.731 259.411 420.771 258.103 420.497 256.808C420.224 255.513 419.237 254.638 417.536 254.182C415.908 253.746 414.625 254.013 413.686 254.983C412.747 255.953 412.101 257.098 411.747 258.419ZM383.066 219.787L383.852 216.857C384.453 214.613 385.482 212.688 386.94 211.082C388.403 209.457 390.19 208.327 392.299 207.69C394.427 207.058 396.785 207.088 399.372 207.781C402.049 208.499 404.142 209.661 405.651 211.267C407.159 212.874 408.132 214.744 408.568 216.877C409.01 218.993 408.93 221.172 408.329 223.415L407.544 226.346C406.943 228.589 405.913 230.514 404.455 232.121C403.015 233.732 401.231 234.854 399.103 235.486C396.998 236.105 394.625 236.06 391.984 235.352C389.343 234.645 387.259 233.485 385.732 231.874C384.228 230.249 383.253 228.389 382.807 226.291C382.384 224.181 382.47 222.013 383.066 219.787ZM391.803 218.987L391.017 221.918C390.664 223.239 390.644 224.542 390.958 225.829C391.291 227.12 392.253 227.979 393.845 228.405C395.51 228.851 396.791 228.594 397.688 227.632C398.604 226.675 399.239 225.536 399.593 224.216L400.378 221.285C400.732 219.964 400.772 218.656 400.498 217.362C400.225 216.067 399.229 215.189 397.51 214.728C395.9 214.297 394.632 214.578 393.707 215.571C392.782 216.564 392.147 217.703 391.803 218.987ZM375.334 262.972L428.435 217.634L435.544 219.539L382.444 264.877L375.334 262.972Z" fill="#4ADE80"/>
<rect x="105.832" y="49.3856" width="458.528" height="215.113" rx="107.557" transform="rotate(15 105.832 49.3856)" stroke="#22C55E" stroke-width="11.3019" shape-rendering="crispEdges"/>
</g>
<defs>
<filter id="filter0_d_147_1333" x="111.527" y="200.759" width="603.028" height="420.081" filterUnits="userSpaceOnUse" color-interpolation-filters="sRGB">
<feFlood flood-opacity="0" result="BackgroundImageFix"/>
<feColorMatrix in="SourceAlpha" type="matrix" values="0 0 0 0 0 0 0 0 0 0 0 0 0 0 0 0 0 0 127 0" result="hardAlpha"/>
<feOffset/>
<feGaussianBlur stdDeviation="34.8882"/>
<feComposite in2="hardAlpha" operator="out"/>
<feColorMatrix type="matrix" values="0 0 0 0 0.937255 0 0 0 0 0.266667 0 0 0 0 0.266667 0 0 0 1 0"/>
<feBlend mode="normal" in2="BackgroundImageFix" result="effect1_dropShadow_147_1333"/>
<feBlend mode="normal" in="SourceGraphic" in2="effect1_dropShadow_147_1333" result="shape"/>
</filter>
<filter id="filter1_d_147_1333" x="-24.4731" y="-25.2438" width="647.839" height="475.718" filterUnits="userSpaceOnUse" color-interpolation-filters="sRGB">
<feFlood flood-opacity="0" result="BackgroundImageFix"/>
<feColorMatrix in="SourceAlpha" type="matrix" values="0 0 0 0 0 0 0 0 0 0 0 0 0 0 0 0 0 0 127 0" result="hardAlpha"/>
<feOffset/>
<feGaussianBlur stdDeviation="33.8542"/>
<feComposite in2="hardAlpha" operator="out"/>
<feColorMatrix type="matrix" values="0 0 0 0 0.192157 0 0 0 0 0.87451 0 0 0 0 0.419608 0 0 0 0.5 0"/>
<feBlend mode="normal" in2="BackgroundImageFix" result="effect1_dropShadow_147_1333"/>
<feBlend mode="normal" in="SourceGraphic" in2="effect1_dropShadow_147_1333" result="shape"/>
</filter>
</defs>
</svg>
