<svg width="559" height="88" viewBox="0 0 559 88" fill="none" xmlns="http://www.w3.org/2000/svg">
<path d="M5.80652 53.1561L45.3631 13.6935L84.9194 53.1561M24.0633 71.0322L45.3631 49.7833L66.6629 71.0322" stroke="#22C55E" stroke-width="13.7576"/>
<path d="M132.379 72.0151C122.988 72.0151 113.514 68.0392 109.199 63.8094C108.776 63.471 108.692 62.8789 109.115 62.4559L116.728 53.4888C117.067 53.0659 117.574 53.0659 117.913 53.4042C121.381 56.4497 126.795 59.1567 132.548 59.1567C137.877 59.1567 140.669 56.9572 140.669 53.7426C140.669 51.2894 139.062 49.6821 133.394 48.9207L130.348 48.4977C117.913 46.7212 111.145 41.138 111.145 30.3944C111.145 19.6508 119.52 12.4602 132.548 12.4602C140.5 12.4602 147.944 14.9135 153.104 18.8049C153.527 19.1433 153.612 19.5662 153.273 20.0738L146.929 29.2947C146.59 29.7176 146.167 29.8022 145.745 29.5484C141.684 26.8414 137.37 25.2341 132.801 25.2341C128.572 25.2341 126.457 27.2644 126.457 30.056C126.457 32.5939 128.318 34.2012 133.817 34.8779L136.862 35.3009C149.467 37.0774 155.896 42.6607 155.896 53.5734C155.896 64.2324 147.775 72.0151 132.379 72.0151ZM199.84 71H187.32C186.813 71 186.474 70.6616 186.474 70.154V67.1932H186.39C184.36 69.9849 180.976 72.0151 175.9 72.0151C166.51 72.0151 162.365 65.6705 162.365 56.6188V30.6482C162.365 30.1406 162.703 29.8022 163.211 29.8022H175.731C176.238 29.8022 176.577 30.1406 176.577 30.6482V54.1656C176.577 57.8032 178.269 60.1718 181.568 60.1718C184.782 60.1718 186.474 57.8878 186.474 54.1656V30.6482C186.474 30.1406 186.813 29.8022 187.32 29.8022H199.84C200.348 29.8022 200.686 30.1406 200.686 30.6482V70.154C200.686 70.6616 200.348 71 199.84 71ZM222.993 86.2271H210.473C209.965 86.2271 209.627 85.8887 209.627 85.3812V30.6482C209.627 30.1406 209.965 29.8022 210.473 29.8022H222.993C223.501 29.8022 223.839 30.1406 223.839 30.6482V33.6936H223.924C225.785 30.8174 229.253 28.7871 234.498 28.7871C241.435 28.7871 246.003 32.2555 248.118 38.6847C249.133 41.9839 249.556 45.2831 249.556 50.4434C249.556 55.5191 249.133 58.8183 248.118 62.1175C246.003 68.5467 241.435 72.0151 234.498 72.0151C229.253 72.0151 225.785 69.9849 223.924 67.1086H223.839V85.3812C223.839 85.8887 223.501 86.2271 222.993 86.2271ZM229.507 60.341C232.045 60.341 233.737 59.2413 234.583 56.8726C235.005 55.5191 235.175 53.9964 235.175 50.4434C235.175 46.8058 235.005 45.2831 234.583 43.9296C233.737 41.5609 232.045 40.4612 229.507 40.4612C227.054 40.4612 225.277 41.5609 224.516 43.9296C224.008 45.2831 223.839 46.8058 223.839 50.4434C223.839 53.9964 224.008 55.5191 224.516 56.8726C225.277 59.2413 227.054 60.341 229.507 60.341ZM292.161 71H280.487C279.98 71 279.641 70.6616 279.641 70.154V67.7854H279.557C277.357 70.3232 273.889 72.0151 268.475 72.0151C261.453 72.0151 255.109 68.2084 255.109 59.3259C255.109 50.105 262.384 45.7907 272.62 45.7907H279.134C279.472 45.7907 279.641 45.6215 279.641 45.2831V44.1834C279.641 41.138 278.034 39.869 271.689 39.869C267.967 39.869 264.753 40.8842 262.807 42.2377C262.384 42.4915 261.961 42.4915 261.707 41.9839L257.308 34.2012C257.054 33.609 257.139 33.186 257.562 32.8476C261.284 30.3098 266.783 28.7871 273.55 28.7871C287.932 28.7871 293.007 33.609 293.007 44.1834V70.154C293.007 70.6616 292.669 71 292.161 71ZM273.212 61.8637C277.611 61.8637 279.641 60.4256 279.641 57.4648V54.9269C279.641 54.5886 279.472 54.4194 279.134 54.4194H274.143C270.336 54.4194 268.39 55.7729 268.39 58.3107C268.39 60.5948 269.997 61.8637 273.212 61.8637ZM319.505 72.0151C310.622 72.0151 303.685 67.87 301.148 59.9181C300.302 57.5494 299.963 54.7578 299.963 50.4434C299.963 46.1291 300.302 43.2528 301.148 40.8842C303.685 32.9322 310.622 28.7871 319.505 28.7871C327.795 28.7871 333.97 32.9322 336.593 38.2617C336.762 38.6847 336.762 39.1077 336.254 39.4461L326.78 44.3526C326.357 44.6064 325.765 44.6909 325.511 44.0988C324.073 41.5609 322.55 40.4612 319.928 40.4612C317.474 40.4612 315.782 41.6455 314.937 44.0142C314.514 45.2831 314.344 46.8904 314.344 50.4434C314.344 53.9118 314.514 55.5191 314.937 56.788C315.782 59.1567 317.474 60.341 319.928 60.341C322.55 60.341 324.073 59.3259 325.511 56.7034C325.765 56.1113 326.357 56.1959 326.78 56.4497L336.254 61.3562C336.762 61.6945 336.762 62.1175 336.593 62.5405C333.97 67.87 327.795 72.0151 319.505 72.0151ZM381.104 71H368.584C368.076 71 367.738 70.6616 367.738 70.154V46.6366C367.738 42.999 366.13 40.6304 362.747 40.6304C359.532 40.6304 357.671 42.9145 357.671 46.6366V70.154C357.671 70.6616 357.333 71 356.825 71H344.305C343.797 71 343.459 70.6616 343.459 70.154V14.3213C343.459 13.8138 343.797 13.4754 344.305 13.4754H356.825C357.333 13.4754 357.671 13.8138 357.671 14.3213V33.609H357.755C359.617 30.902 363.17 28.7871 368.33 28.7871C377.72 28.7871 381.95 35.1317 381.95 44.1834V70.154C381.95 70.6616 381.611 71 381.104 71ZM426.076 71H414.402C413.894 71 413.556 70.6616 413.556 70.154V67.7854H413.471C411.272 70.3232 407.803 72.0151 402.389 72.0151C395.368 72.0151 389.023 68.2084 389.023 59.3259C389.023 50.105 396.298 45.7907 406.534 45.7907H413.048C413.387 45.7907 413.556 45.6215 413.556 45.2831V44.1834C413.556 41.138 411.949 39.869 405.604 39.869C401.882 39.869 398.667 40.8842 396.721 42.2377C396.298 42.4915 395.875 42.4915 395.622 41.9839L391.223 34.2012C390.969 33.609 391.054 33.186 391.477 32.8476C395.199 30.3098 400.697 28.7871 407.465 28.7871C421.846 28.7871 426.922 33.609 426.922 44.1834V70.154C426.922 70.6616 426.583 71 426.076 71ZM407.127 61.8637C411.526 61.8637 413.556 60.4256 413.556 57.4648V54.9269C413.556 54.5886 413.387 54.4194 413.048 54.4194H408.057C404.25 54.4194 402.305 55.7729 402.305 58.3107C402.305 60.5948 403.912 61.8637 407.127 61.8637ZM449.02 71H436.5C435.993 71 435.654 70.6616 435.654 70.154V30.6482C435.654 30.1406 435.993 29.8022 436.5 29.8022H449.02C449.528 29.8022 449.866 30.1406 449.866 30.6482V34.2858H449.951C451.897 30.6482 455.788 28.7871 460.61 28.7871C462.894 28.7871 465.009 29.3793 466.278 30.3944C466.785 30.6482 466.87 30.902 466.701 31.4941L461.879 43.422C461.54 43.845 461.202 43.7604 460.694 43.5066C458.664 42.2377 456.634 41.6455 454.688 41.8993C451.389 42.1531 449.866 44.6909 449.866 49.0899V70.154C449.866 70.6616 449.528 71 449.02 71ZM486.832 87.2422C480.318 87.2422 473.55 84.2814 470.674 80.813C470.336 80.39 470.42 79.9671 470.759 79.5441L477.865 72.2689C478.288 71.846 478.71 71.846 479.133 72.2689C481.587 74.2992 484.04 75.5681 487.255 75.5681C492.33 75.5681 494.53 72.9457 494.53 67.1932V64.0632H494.445C492.669 67.024 489.031 68.8851 483.955 68.8851C477.188 68.8851 472.535 65.5013 470.42 58.9875C469.49 56.1959 469.067 53.1505 469.067 48.8361C469.067 44.5218 469.49 41.5609 470.42 38.6847C472.535 32.2555 477.188 28.7871 483.955 28.7871C489.031 28.7871 492.669 30.7328 494.445 33.6936H494.53V30.6482C494.53 30.1406 494.868 29.8022 495.376 29.8022H507.896C508.403 29.8022 508.742 30.1406 508.742 30.6482V64.6554C508.742 80.5592 501.128 87.2422 486.832 87.2422ZM488.946 57.2956C491.654 57.2956 493.176 56.1113 493.938 53.658C494.276 52.4737 494.53 51.2048 494.53 48.8361C494.53 46.552 494.276 45.1985 493.938 44.0142C493.176 41.6455 491.654 40.4612 488.946 40.4612C486.324 40.4612 484.801 41.6455 484.04 44.0142C483.617 45.1985 483.448 46.552 483.448 48.8361C483.448 51.2048 483.617 52.4737 484.04 53.658C484.801 56.1113 486.324 57.2956 488.946 57.2956ZM536.468 72.0151C526.402 72.0151 519.719 67.5316 517.265 59.9181C516.419 57.4648 515.912 54.7578 515.912 50.4434C515.912 46.0445 516.419 43.2528 517.181 40.8842C519.719 33.186 526.402 28.7871 535.622 28.7871C545.435 28.7871 551.865 33.186 554.233 40.715C555.079 43.2528 555.587 46.3828 555.587 53.5734C555.587 54.081 555.248 54.4194 554.656 54.4194H530.208C529.87 54.4194 529.701 54.5886 529.701 54.9269C529.785 55.5191 529.87 56.1113 530.039 56.6188C530.97 59.4951 534.015 61.1024 537.991 61.1024C541.544 61.1024 544.59 59.9181 547.212 57.8032C547.72 57.3802 548.058 57.3802 548.481 57.8032L554.487 63.9786C554.91 64.317 554.826 64.9092 554.403 65.2475C550.088 69.3927 543.828 72.0151 536.468 72.0151ZM530.208 45.7907H541.375C541.713 45.7907 541.882 45.6215 541.882 45.2831C541.882 44.1834 541.798 43.422 541.544 42.7453C540.783 40.3766 538.752 39.0231 535.792 39.0231C532.915 39.0231 530.801 40.3766 530.039 42.7453C529.87 43.422 529.701 44.1834 529.701 45.2831C529.701 45.6215 529.87 45.7907 530.208 45.7907Z" fill="#F8FAFC"/>
</svg>
